<svg width="40" height="40" viewBox="0 0 40 40" fill="none" xmlns="http://www.w3.org/2000/svg">
<g clip-path="url(#clip0_288_86)">
<path d="M14.4576 0.421407C15.0675 -0.148906 16.0138 -0.141093 16.6238 0.429219C18.7821 2.45266 20.8076 4.63234 22.7001 6.99172C23.5603 5.86672 24.5378 4.64016 25.5935 3.64016C26.2113 3.06203 27.1654 3.06203 27.7832 3.64797C30.489 6.22609 32.7803 9.63234 34.3913 12.8667C35.9788 16.0542 37.0345 19.312 37.0345 21.6089C37.0345 31.5777 29.2299 39.9995 19.5172 39.9995C9.69507 39.9995 2 31.5698 2 21.6011C2 18.6011 3.392 14.937 5.55037 11.312C7.7322 7.63234 10.8134 3.79641 14.4576 0.421407ZM19.6502 32.4995C21.6287 32.4995 23.3804 31.9527 25.0305 30.8589C28.3228 28.562 29.2065 23.9683 27.228 20.3589C26.876 19.6558 25.9767 19.6089 25.4684 20.2027L23.4977 22.4917C22.9816 23.0855 22.051 23.0698 21.5661 22.4527C20.2758 20.812 17.9688 17.8823 16.655 16.2183C16.1624 15.5933 15.224 15.5855 14.7235 16.2105C12.0802 19.5308 10.7508 21.6245 10.7508 23.9761C10.7586 29.3277 14.7156 32.4995 19.6502 32.4995Z" fill="#06D6A0"/>
</g>
<defs>
<clipPath id="clip0_288_86">
<rect width="40" height="40" fill="white"/>
</clipPath>
</defs>
</svg>
