<svg width="40" height="40" viewBox="0 0 40 40" fill="none" xmlns="http://www.w3.org/2000/svg">
<g clip-path="url(#clip0_288_88)">
<path d="M26.2502 1.25V6.25C26.2502 6.9375 25.6877 7.5 25.0002 7.5C24.3127 7.5 23.7502 6.9375 23.7502 6.25V1.25C23.7502 0.5625 24.3127 0 25.0002 0C25.6877 0 26.2502 0.5625 26.2502 1.25ZM18.5392 1.80469L21.0392 5.55469C21.4221 6.13281 21.2658 6.90625 20.6955 7.28906C20.1252 7.67187 19.3439 7.51562 18.9611 6.94531L16.4611 3.19531C16.0783 2.61719 16.2346 1.84375 16.8049 1.46094C17.3752 1.07812 18.1564 1.23437 18.5392 1.80469ZM10.5471 9.29687C11.2814 8.5625 12.4689 8.5625 13.1955 9.29687L22.8674 18.9609C23.6564 19.75 25.0002 19.1875 25.0002 18.0781V15C25.0002 13.6172 26.1174 12.5 27.5002 12.5C28.883 12.5 30.0002 13.6172 30.0002 15V27C30.0002 31.4609 27.6564 35.5937 23.8361 37.8906C18.8361 40.8906 12.4455 40.1016 8.32831 35.9844L0.547058 28.2031C-0.187317 27.4687 -0.187317 26.2812 0.547058 25.5547C1.28143 24.8281 2.46893 24.8203 3.1955 25.5547L7.33612 29.6953C7.81268 30.1719 8.58612 30.1719 9.06268 29.6953C9.53925 29.2187 9.53925 28.4453 9.06268 27.9687L1.79706 20.7031C1.06268 19.9687 1.06268 18.7812 1.79706 18.0547C2.53143 17.3281 3.71893 17.3203 4.4455 18.0547L11.7111 25.3203C12.1877 25.7969 12.9611 25.7969 13.4377 25.3203C13.9142 24.8437 13.9142 24.0703 13.4377 23.5937L4.29706 14.4531C3.56268 13.7187 3.56268 12.5312 4.29706 11.8047C5.03143 11.0781 6.21893 11.0703 6.9455 11.8047L16.0861 20.9453C16.5627 21.4219 17.3361 21.4219 17.8127 20.9453C18.2892 20.4687 18.2892 19.6953 17.8127 19.2187L10.5471 11.9531C9.81268 11.2187 9.81268 10.0312 10.5471 9.30469V9.29687ZM33.8361 37.8828C31.9455 39.0156 29.8596 39.6094 27.7658 39.6875C31.5236 36.5937 33.7502 31.9531 33.7502 27V19.3359C34.3908 19.3281 35.0002 18.8359 35.0002 18.0859V15C35.0002 13.6172 36.1174 12.5 37.5002 12.5C38.883 12.5 40.0002 13.6172 40.0002 15V27C40.0002 31.4609 37.6564 35.5937 33.8361 37.8906V37.8828ZM33.1955 1.46094C33.7736 1.84375 33.9221 2.61719 33.5392 3.19531L31.0392 6.94531C30.6564 7.52344 29.883 7.67187 29.3049 7.28906C28.7267 6.90625 28.5783 6.13281 28.9611 5.55469L31.4611 1.80469C31.8439 1.22656 32.6174 1.07812 33.1955 1.46094Z" fill="#06D6A0"/>
</g>
<defs>
<clipPath id="clip0_288_88">
<rect width="40" height="40" fill="white"/>
</clipPath>
</defs>
</svg>
