<svg width="40" height="40" viewBox="0 0 40 40" fill="none" xmlns="http://www.w3.org/2000/svg">
<path d="M3 7H8.5C9.33125 7 10 6.33125 10 5.5C10 4.66875 9.33125 4 8.5 4H2C0.89375 4 0 4.89375 0 6V12.5C0 13.3313 0.66875 14 1.5 14C2.33125 14 3 13.3313 3 12.5V7ZM10.9875 18C11.3815 18 11.7716 17.9224 12.1356 17.7716C12.4995 17.6209 12.8302 17.3999 13.1088 17.1213C13.3874 16.8427 13.6084 16.512 13.7591 16.1481C13.9099 15.7841 13.9875 15.394 13.9875 15C13.9875 14.606 13.9099 14.2159 13.7591 13.852C13.6084 13.488 13.3874 13.1573 13.1088 12.8787C12.8302 12.6001 12.4995 12.3791 12.1356 12.2284C11.7716 12.0776 11.3815 12 10.9875 12C10.5935 12 10.2034 12.0776 9.83945 12.2284C9.47547 12.3791 9.14476 12.6001 8.86618 12.8787C8.5876 13.1573 8.36663 13.488 8.21586 13.852C8.0651 14.2159 7.9875 14.606 7.9875 15C7.9875 15.394 8.0651 15.7841 8.21586 16.1481C8.36663 16.512 8.5876 16.8427 8.86618 17.1213C9.14476 17.3999 9.47547 17.6209 9.83945 17.7716C10.2034 17.9224 10.5935 18 10.9875 18ZM9.33125 20C7.49375 20 6 21.4938 6 23.3313C6 24.25 6.74375 25 7.66875 25H11.175C11.675 22.8688 13.225 21.1438 15.25 20.4C14.7812 20.1438 14.2375 20 13.6687 20H9.33125ZM32.3312 25C33.25 25 34 24.2563 34 23.3313C34 21.4875 32.5063 20 30.6688 20H26.3312C25.7562 20 25.2188 20.1438 24.75 20.4C26.775 21.1438 28.325 22.8688 28.825 25H32.3312ZM26.7437 25C26.2062 23.4813 24.875 22.3375 23.25 22.0625C23.0062 22.0188 22.7562 22 22.5 22H17.5C17.2438 22 16.9938 22.0188 16.75 22.0625C15.125 22.3375 13.7938 23.4813 13.2563 25C13.0875 25.4688 13 25.975 13 26.5C13 27.3313 13.6687 28 14.5 28H25.5C26.3313 28 27 27.3313 27 26.5C27 25.975 26.9125 25.4688 26.7437 25ZM29 18C29.394 18 29.7841 17.9224 30.1481 17.7716C30.512 17.6209 30.8427 17.3999 31.1213 17.1213C31.3999 16.8427 31.6209 16.512 31.7716 16.1481C31.9224 15.7841 32 15.394 32 15C32 14.606 31.9224 14.2159 31.7716 13.852C31.6209 13.488 31.3999 13.1573 31.1213 12.8787C30.8427 12.6001 30.512 12.3791 30.1481 12.2284C29.7841 12.0776 29.394 12 29 12C28.606 12 28.2159 12.0776 27.8519 12.2284C27.488 12.3791 27.1573 12.6001 26.8787 12.8787C26.6001 13.1573 26.3791 13.488 26.2284 13.852C26.0776 14.2159 26 14.606 26 15C26 15.394 26.0776 15.7841 26.2284 16.1481C26.3791 16.512 26.6001 16.8427 26.8787 17.1213C27.1573 17.3999 27.488 17.6209 27.8519 17.7716C28.2159 17.9224 28.606 18 29 18ZM24 16C24 14.9391 23.5786 13.9217 22.8284 13.1716C22.0783 12.4214 21.0609 12 20 12C18.9391 12 17.9217 12.4214 17.1716 13.1716C16.4214 13.9217 16 14.9391 16 16C16 17.0609 16.4214 18.0783 17.1716 18.8284C17.9217 19.5786 18.9391 20 20 20C21.0609 20 22.0783 19.5786 22.8284 18.8284C23.5786 18.0783 24 17.0609 24 16ZM31.5 7H37V12.5C37 13.3313 37.6687 14 38.5 14C39.3313 14 40 13.3313 40 12.5V6C40 4.89375 39.1063 4 38 4H31.5C30.6687 4 30 4.66875 30 5.5C30 6.33125 30.6687 7 31.5 7ZM3 33V27.5C3 26.6688 2.33125 26 1.5 26C0.66875 26 0 26.6688 0 27.5V34C0 35.1063 0.89375 36 2 36H8.5C9.33125 36 10 35.3313 10 34.5C10 33.6688 9.33125 33 8.5 33H3ZM31.5 33C30.6687 33 30 33.6688 30 34.5C30 35.3313 30.6687 36 31.5 36H38C39.1063 36 40 35.1063 40 34V27.5C40 26.6688 39.3313 26 38.5 26C37.6687 26 37 26.6688 37 27.5V33H31.5Z" fill="#06D6A0"/>
</svg>
